# xmcd CD database file
#
# Track frame offsets:
#	150
#	1795
#	15952
#	30347
#	51750
#	70347
#	87457
#	101612
#	125710
#	141307
#	153512
#	169557
#	186542
#	197842
#	212060
#	222355
#
# Disc length: 3206 seconds
#
# Revision: 2
# Processed by: cddbd v1.5.2PL0 Copyright (c) Steve Scherf et al.
# Submitted via: CDex 1.72
#
DISCID=df0c8410
DTITLE=Quitzau, Lester [CDN-94-Keep On Walking-blues) - Keep On Walking
DYEAR=1994
DGENRE=Blues
TTITLE0=Intro
TTITLE1=I've
TTITLE2=Rich Land Women Blues
TTITLE3=Road
TTITLE4=Someday Baby
TTITLE5=Feel The Way I Do
TTITLE6=Close To You
TTITLE7=Turkish Theme
TTITLE8=Rats In My Kitchen
TTITLE9=Your Heart
TTITLE10=Valhalla
TTITLE11=Room Full Of Mirrors
TTITLE12=Saddle Up My Pony
TTITLE13=Keep On Walking
TTITLE14=Lookin' For My Baby
TTITLE15=Alone...But Not Lonely
EXTD=YEAR: 1994
EXTT0=
EXTT1=
EXTT2=
EXTT3=
EXTT4=
EXTT5=
EXTT6=
EXTT7=
EXTT8=
EXTT9=
EXTT10=
EXTT11=
EXTT12=
EXTT13=
EXTT14=
EXTT15=
PLAYORDER=
